<?xml version="1.0" standalone="no"?>
<!DOCTYPE svg PUBLIC "-//W3C//DTD SVG 20010904//EN"
 "http://www.w3.org/TR/2001/REC-SVG-20010904/DTD/svg10.dtd">
<svg version="1.0" xmlns="http://www.w3.org/2000/svg"
 width="512.000000pt" height="512.000000pt" viewBox="0 0 512.000000 512.000000"
 preserveAspectRatio="xMidYMid meet">
<metadata>
Created by potrace 1.11, written by Peter Selinger 2001-2013
</metadata>
<g transform="translate(0.000000,512.000000) scale(0.100000,-0.100000)"
fill="#000000" stroke="none">
<path d="M0 2560 l0 -2240 1875 0 1875 0 0 468 0 468 121 12 c438 44 805 269
1041 638 238 372 273 865 92 1279 -203 461 -662 784 -1156 812 l-98 6 0 398 0
399 -1297 -2 -1298 -3 -3 -861 -2 -862 145 -173 145 -174 0 -407 0 -408 -505
0 -505 0 0 404 0 404 145 174 145 173 0 868 0 867 -360 0 -360 0 0 -2240z
m3970 979 c113 -26 284 -111 378 -189 233 -194 354 -488 330 -801 -33 -444
-402 -812 -845 -846 l-83 -6 0 937 0 937 68 -7 c37 -3 105 -15 152 -25z"/>
</g>
</svg>
